<svg width="384" height="106" viewBox="0 0 384 106" fill="none" xmlns="http://www.w3.org/2000/svg">
<g filter="url(#filter0_d_77_2168)">
<path d="M43.4719 52.5799C42.4079 52.5799 41.0079 52.4119 39.9999 51.9639V50.5079C40.8679 51.4319 41.7639 52.1879 43.4439 52.1879C44.9839 52.1599 46.2999 51.3199 46.2999 48.2399V33.1479H49.2959V46.6719C49.2959 49.9199 47.8959 52.5799 43.4719 52.5799ZM65.8384 45.1319H55.4784C55.5064 49.7239 57.4664 52.0759 60.7704 52.0759C63.1224 52.0759 64.4104 51.1239 65.3624 50.3399V50.7879C64.3264 51.6839 62.8424 52.5799 60.0984 52.5799C55.2264 52.5799 52.3984 49.3039 52.3984 45.0759C52.3984 40.0919 56.2624 37.7399 59.8744 37.7399C63.4864 37.7399 65.9784 40.2599 65.9784 43.7599C65.9784 44.2359 65.9224 44.6839 65.8384 45.1319ZM55.4784 44.7399H63.4024C63.4024 44.2359 63.4304 43.7039 63.4304 43.2559C63.4304 39.9799 62.1984 38.1319 59.8744 38.1319C57.1024 38.1319 55.5624 40.2319 55.4784 44.7399ZM87.3558 38.1599H88.4758C86.9078 41.8839 86.5718 43.3959 84.0518 49.2479L82.4838 52.7199H82.1478L77.8358 41.2679L73.3278 52.7199H72.9918L67.1118 38.1599H70.1638L74.3078 48.9399H74.4198L78.8718 37.5999H79.2078L83.5198 49.2199H83.6318C85.8158 43.6199 86.9358 39.7559 87.3558 38.1599ZM102.958 45.1319H92.5981C92.6261 49.7239 94.5861 52.0759 97.8901 52.0759C100.242 52.0759 101.53 51.1239 102.482 50.3399V50.7879C101.446 51.6839 99.9621 52.5799 97.2181 52.5799C92.3461 52.5799 89.5181 49.3039 89.5181 45.0759C89.5181 40.0919 93.3821 37.7399 96.9941 37.7399C100.606 37.7399 103.098 40.2599 103.098 43.7599C103.098 44.2359 103.042 44.6839 102.958 45.1319ZM92.5981 44.7399H100.522C100.522 44.2359 100.55 43.7039 100.55 43.2559C100.55 39.9799 99.3181 38.1319 96.9941 38.1319C94.2221 38.1319 92.6821 40.2319 92.5981 44.7399ZM106.105 52.1879V31.9999H108.989V52.1879H106.105ZM115.927 40.7919C116.403 38.9999 118.307 37.7119 120.211 37.7119V39.0839C118.503 39.0839 116.459 39.2519 115.955 41.5199V52.1599H113.071V37.5999H113.631L115.927 40.7919ZM133.021 38.1599H134.169L129.269 48.7999L127.645 52.1599L125.321 57.1999L124.145 56.4439L127.309 52.1599L120.925 38.1599H123.949L128.737 48.7999H128.849C131.509 42.7239 132.349 40.2879 133.021 38.1599ZM142.827 52.1599V38.5519H139.859V38.1599H142.827L145.123 34.4639H145.683V38.1599H148.651V38.5519H145.683V52.1599H142.827ZM158.813 37.7399C162.145 37.7399 163.993 39.6439 163.993 43.1719V52.1599H161.109V42.8919C161.109 40.2879 160.101 38.8599 157.637 38.8599C155.481 38.8599 154.389 40.2879 153.745 42.3879V52.1599H150.861V31.9999H153.745V41.5199C154.417 39.3079 156.097 37.7399 158.813 37.7399ZM173.265 37.7399C177.633 37.7399 178.977 39.8119 178.977 43.6759V52.7199H178.417L176.261 48.6039C175.589 50.6199 173.517 52.5799 170.661 52.5799C168.225 52.5799 166.657 51.3759 166.657 49.1359C166.657 45.2719 171.221 44.1799 176.093 44.1519V42.4719C176.093 39.9799 175.757 38.1319 172.957 38.1319C170.773 38.1319 168.981 39.3919 167.833 40.4559V39.0559C169.681 38.2159 171.641 37.7399 173.265 37.7399ZM171.921 51.4319C173.825 51.4319 175.309 50.0039 176.093 48.0719V44.5439C172.929 44.7119 169.373 45.5239 169.373 48.4919C169.373 50.6479 170.521 51.4319 171.921 51.4319ZM183.686 52.1599V38.5519H180.718V38.1599H183.686L185.982 34.4639H186.542V38.1599H189.51V38.5519H186.542V52.1599H183.686ZM200.531 40.7919C201.007 38.9999 202.911 37.7119 204.815 37.7119V39.0839C203.107 39.0839 201.063 39.2519 200.559 41.5199V52.1599H197.675V37.5999H198.235L200.531 40.7919ZM218.823 45.1319H208.463C208.491 49.7239 210.451 52.0759 213.755 52.0759C216.107 52.0759 217.395 51.1239 218.347 50.3399V50.7879C217.311 51.6839 215.827 52.5799 213.083 52.5799C208.211 52.5799 205.383 49.3039 205.383 45.0759C205.383 40.0919 209.247 37.7399 212.859 37.7399C216.471 37.7399 218.963 40.2599 218.963 43.7599C218.963 44.2359 218.907 44.6839 218.823 45.1319ZM208.463 44.7399H216.387C216.387 44.2359 216.415 43.7039 216.415 43.2559C216.415 39.9799 215.183 38.1319 212.859 38.1319C210.087 38.1319 208.547 40.2319 208.463 44.7399ZM239.806 37.7399C243.11 37.7399 244.734 39.6999 244.734 43.1719V52.1599H241.878V42.8919C241.878 40.3159 241.066 38.8599 238.63 38.8599C236.446 38.8599 235.298 40.3999 234.766 42.3039C234.794 42.4999 234.794 42.6959 234.794 42.8919V52.1599H231.938V42.8919C231.938 40.3159 231.098 38.8599 228.662 38.8599C226.422 38.8599 225.47 40.2879 224.854 42.3879V52.1599H221.97V37.5999H222.53L224.798 41.5479C225.526 39.2239 227.178 37.7399 229.838 37.7399C232.61 37.7399 234.234 39.2519 234.654 41.5199C235.438 39.1119 237.118 37.7399 239.806 37.7399ZM261.138 45.1319H250.778C250.806 49.7239 252.766 52.0759 256.07 52.0759C258.422 52.0759 259.71 51.1239 260.662 50.3399V50.7879C259.626 51.6839 258.142 52.5799 255.398 52.5799C250.526 52.5799 247.698 49.3039 247.698 45.0759C247.698 40.0919 251.562 37.7399 255.174 37.7399C258.786 37.7399 261.278 40.2599 261.278 43.7599C261.278 44.2359 261.222 44.6839 261.138 45.1319ZM250.778 44.7399H258.702C258.702 44.2359 258.73 43.7039 258.73 43.2559C258.73 39.9799 257.498 38.1319 255.174 38.1319C252.402 38.1319 250.862 40.2319 250.778 44.7399ZM282.121 37.7399C285.425 37.7399 287.049 39.6999 287.049 43.1719V52.1599H284.193V42.8919C284.193 40.3159 283.381 38.8599 280.945 38.8599C278.761 38.8599 277.613 40.3999 277.081 42.3039C277.109 42.4999 277.109 42.6959 277.109 42.8919V52.1599H274.253V42.8919C274.253 40.3159 273.413 38.8599 270.977 38.8599C268.737 38.8599 267.785 40.2879 267.169 42.3879V52.1599H264.285V37.5999H264.845L267.113 41.5479C267.841 39.2239 269.493 37.7399 272.153 37.7399C274.925 37.7399 276.549 39.2519 276.969 41.5199C277.753 39.1119 279.433 37.7399 282.121 37.7399ZM299.085 37.7399C302.893 37.7399 305.217 40.3719 305.217 44.8239C305.217 49.2479 302.977 52.5799 299.085 52.5799C295.865 52.5799 294.073 50.3119 293.709 48.5199L291.553 52.7199H290.993V31.9999H293.877V41.5479C294.633 39.0839 296.761 37.7399 299.085 37.7399ZM298.021 51.4879C300.933 51.4879 302.137 48.7719 302.137 45.1599C302.137 41.4079 300.821 38.8599 297.993 38.8599C296.229 38.8599 294.661 39.8399 293.877 42.3599V47.7359C294.213 49.4159 295.221 51.4879 298.021 51.4879ZM320.837 45.1319H310.477C310.505 49.7239 312.465 52.0759 315.769 52.0759C318.121 52.0759 319.409 51.1239 320.361 50.3399V50.7879C319.325 51.6839 317.841 52.5799 315.097 52.5799C310.225 52.5799 307.397 49.3039 307.397 45.0759C307.397 40.0919 311.261 37.7399 314.873 37.7399C318.485 37.7399 320.977 40.2599 320.977 43.7599C320.977 44.2359 320.921 44.6839 320.837 45.1319ZM310.477 44.7399H318.401C318.401 44.2359 318.429 43.7039 318.429 43.2559C318.429 39.9799 317.197 38.1319 314.873 38.1319C312.101 38.1319 310.561 40.2319 310.477 44.7399ZM326.84 40.7919C327.316 38.9999 329.22 37.7119 331.124 37.7119V39.0839C329.416 39.0839 327.372 39.2519 326.868 41.5199V52.1599H323.984V37.5999H324.544L326.84 40.7919ZM337.723 52.5799C336.127 52.5799 334.195 52.2439 332.571 51.4319V49.8919C334.139 51.3759 335.875 52.1879 337.555 52.1879C339.543 52.1879 341.027 51.2639 341.027 49.6399C341.027 47.5119 338.787 46.8119 337.079 46.1679C334.951 45.3839 332.599 44.5159 332.599 41.7439C332.599 39.3639 334.559 37.7399 337.751 37.7399C339.347 37.7399 341.195 38.2439 342.231 38.7199V40.2599C341.083 39.0559 339.655 38.1599 337.807 38.1599C336.043 38.1599 334.979 39.0279 334.979 40.5959C334.979 42.5559 336.827 43.1719 338.479 43.8159C340.691 44.7119 343.295 45.5239 343.295 48.3519C343.295 50.7879 341.251 52.5799 337.723 52.5799Z" fill="white"/>
</g>
<defs>
<filter id="filter0_d_77_2168" x="0" y="0" width="383.295" height="105.2" filterUnits="userSpaceOnUse" color-interpolation-filters="sRGB">
<feFlood flood-opacity="0" result="BackgroundImageFix"/>
<feColorMatrix in="SourceAlpha" type="matrix" values="0 0 0 0 0 0 0 0 0 0 0 0 0 0 0 0 0 0 127 0" result="hardAlpha"/>
<feOffset dy="8"/>
<feGaussianBlur stdDeviation="20"/>
<feComposite in2="hardAlpha" operator="out"/>
<feColorMatrix type="matrix" values="0 0 0 0 0 0 0 0 0 0 0 0 0 0 0 0 0 0 0.12 0"/>
<feBlend mode="normal" in2="BackgroundImageFix" result="effect1_dropShadow_77_2168"/>
<feBlend mode="normal" in="SourceGraphic" in2="effect1_dropShadow_77_2168" result="shape"/>
</filter>
</defs>
</svg>
