<svg width="994" height="164" viewBox="0 0 994 164" fill="none" xmlns="http://www.w3.org/2000/svg">
<path d="M993.15 163.3H940.221L939.806 162.793L831.181 33.2866C773.044 103.338 746.614 151.368 743.503 162.54L743.296 163.3H717.303L718.432 161.941C736.729 139.919 757.652 113.198 779.796 84.9096L779.957 84.7023C793.46 67.4486 807.401 49.5959 821.503 31.9275L847.335 0H855.261L855.423 0.18429L993.173 163.323L993.15 163.3ZM374.609 0.0691043H366.682L340.851 31.9966C326.772 49.688 312.808 67.5177 299.305 84.7714L299.212 84.8866C277.045 113.221 256.099 139.988 237.78 162.033L236.651 163.392H262.643L262.851 162.632C265.985 151.46 292.392 103.453 350.529 33.3788L459.153 162.886L459.568 163.392H512.498L374.747 0.253394L374.586 0.0691043H374.609ZM733.503 16.9313C738.779 12.923 743.503 9.3525 747.49 6.33482L749.471 4.83751H722.165L721.774 5.36733C714.17 15.503 696.841 34.7148 634.579 84.0573H634.349L548.353 5.22912L547.915 4.81446H491.506L589 92.6496V163.507H641.538V87.3745C673.176 62.6341 708.639 35.7975 732.097 18.0139L733.526 16.9313H733.503ZM269.026 4.81446H0.0921914V5.78195H0V25.7079L1.84344 25.4084C26.6837 21.3771 64.3589 18.705 108.002 17.8988V163.346H108.486V163.484H160.678V163.346H160.84L161.001 34.208V17.8757C204.713 18.682 242.435 21.3311 267.321 25.3854L269.026 25.6618V4.76841V4.81446Z" fill="black"/>
</svg>
