<svg width="247" height="247" viewBox="0 0 247 247" fill="none" xmlns="http://www.w3.org/2000/svg">
<path d="M123.297 0C55.2043 0 0 55.1961 0 123.279C0 191.362 55.2043 246.558 123.297 246.558C191.39 246.558 246.595 191.362 246.595 123.279C246.595 55.1961 191.39 0 123.297 0ZM123.297 198.118C70.9598 198.118 28.5236 155.688 28.5236 103.359C28.5236 61.0131 56.3005 25.1712 94.6291 13.0192C103.531 9.98419 113.035 8.32217 122.912 8.32217C129.585 8.32217 136.09 9.09295 142.365 10.5141C185.572 19.3421 218.071 57.5446 218.071 103.359C218.071 155.688 175.635 198.118 123.297 198.118Z" fill="#000500"/>
</svg>
