<svg width="85" height="14" viewBox="0 0 85 14" fill="none" xmlns="http://www.w3.org/2000/svg">
<path d="M84.7244 13.9309H80.2091L80.1737 13.8877L70.9071 2.83964C65.9474 8.81565 63.6927 12.913 63.4273 13.8661L63.4096 13.9309H61.1923L61.2886 13.815C62.8494 11.9363 64.6343 9.65674 66.5234 7.24354L66.5372 7.22585C67.6891 5.75395 68.8784 4.23096 70.0814 2.7237L72.2851 0H72.9613L72.975 0.0157215L84.7264 13.9329L84.7244 13.9309ZM31.9574 0.0058952H31.2812L29.0776 2.72959C27.8765 4.23882 26.6852 5.75985 25.5333 7.23175L25.5254 7.24157C23.6344 9.6587 21.8475 11.9422 20.2847 13.8229L20.1884 13.9388H22.4058L22.4235 13.8739C22.6908 12.9208 24.9436 8.82548 29.9032 2.8475L39.1698 13.8956L39.2052 13.9388H43.7205L31.9692 0.0216167L31.9555 0.0058952H31.9574ZM62.5742 1.44439C63.0243 1.10245 63.4273 0.79785 63.7674 0.540416L63.9365 0.412682H61.607L61.5736 0.45788C60.9249 1.32255 59.4467 2.96148 54.1352 7.17083H54.1155L46.7793 0.446089L46.7419 0.410715H41.9297L50.2469 7.90382V13.9486H54.7288V7.45381C57.4278 5.34324 60.4531 3.05384 62.4543 1.53675L62.5762 1.44439H62.5742ZM22.9503 0.410715H0.00786473V0.493251H0V2.19311L0.157262 2.16756C2.27635 1.82366 5.49038 1.5957 9.21354 1.52692V13.9349H9.25482V13.9467H13.7073V13.9349H13.721L13.7348 2.91825V1.52495C17.4638 1.59373 20.6818 1.81973 22.8048 2.16559L22.9503 2.18917V0.406787V0.410715Z" fill="black"/>
</svg>
